<svg xmlns="http://www.w3.org/2000/svg" width="1280" height="720" viewBox="0 0 1280 720" role="img" aria-labelledby="title desc">
  <title id="title">zFlow demo video thumbnail</title>
  <desc id="desc">A polished video thumbnail for the zFlow product demo.</desc>
  <defs>
    <linearGradient id="bg" x1="0" y1="0" x2="1" y2="1">
      <stop offset="0" stop-color="#0c1114"/>
      <stop offset="0.55" stop-color="#111a1e"/>
      <stop offset="1" stop-color="#17201c"/>
    </linearGradient>
    <filter id="softShadow" x="-20%" y="-20%" width="140%" height="140%">
      <feDropShadow dx="0" dy="28" stdDeviation="34" flood-color="#06100b" flood-opacity="0.55"/>
    </filter>
  </defs>
  <rect width="1280" height="720" fill="url(#bg)"/>
  <path d="M0 585C166 540 314 575 487 532C676 485 787 397 1000 424C1110 438 1196 481 1280 459V720H0Z" fill="#172820" opacity="0.68"/>
  <g transform="translate(94 74)">
    <rect width="1092" height="556" rx="24" fill="#11181b" stroke="#314148" stroke-width="2" filter="url(#softShadow)"/>
    <rect width="1092" height="58" rx="24" fill="#1a2428"/>
    <circle cx="33" cy="29" r="8" fill="#ff6b5f"/>
    <circle cx="62" cy="29" r="8" fill="#f2c24d"/>
    <circle cx="91" cy="29" r="8" fill="#51d17d"/>
    <text x="548" y="38" text-anchor="middle" font-family="ui-monospace, SFMono-Regular, Menlo, Consolas, monospace" font-size="18" fill="#9dafb7">zFlow demo</text>
    <text x="62" y="137" font-family="ui-monospace, SFMono-Regular, Menlo, Consolas, monospace" font-size="32" font-weight="700" fill="#e9f6ee">$ zflow</text>
    <text x="62" y="192" font-family="Inter, Arial, sans-serif" font-size="48" font-weight="800" fill="#f4fbf6">Your real shell, now easier to recall.</text>
    <text x="64" y="239" font-family="Inter, Arial, sans-serif" font-size="24" font-weight="500" fill="#99acb4">Local history, preview-first suggestions, no cloud upload by default.</text>
    <rect x="62" y="306" width="780" height="128" rx="12" fill="#080d0f" stroke="#50c893" stroke-width="2"/>
    <text x="92" y="352" font-family="ui-monospace, SFMono-Regular, Menlo, Consolas, monospace" font-size="22" font-weight="800" fill="#50c893">[ SUGGESTIONS ]</text>
    <text x="92" y="394" font-family="ui-monospace, SFMono-Regular, Menlo, Consolas, monospace" font-size="24" fill="#dff8ea">&lt;1&gt; git status</text>
    <text x="312" y="394" font-family="ui-monospace, SFMono-Regular, Menlo, Consolas, monospace" font-size="24" fill="#dff8ea">&lt;2&gt; zflow learn</text>
    <text x="560" y="394" font-family="ui-monospace, SFMono-Regular, Menlo, Consolas, monospace" font-size="24" fill="#dff8ea">&lt;3&gt; zflow eval</text>
    <circle cx="939" cy="370" r="70" fill="#50c893"/>
    <path d="M916 327v86l75-43Z" fill="#0d1316"/>
    <text x="64" y="506" font-family="Inter, Arial, sans-serif" font-size="22" font-weight="650" fill="#bfe9d3">90-second product walkthrough</text>
  </g>
</svg>
